<svg xmlns="http://www.w3.org/2000/svg" viewBox="0 0 24 24" fill="none">
  <path d="M12 15.5a3.5 3.5 0 1 0 0-7 3.5 3.5 0 0 0 0 7Z" stroke="currentColor" stroke-width="1.8" stroke-linecap="round"/>
  <path d="M19.4 15a8 8 0 0 0 .1-1l2-1.5-2-3.5-2.4.8a8 8 0 0 0-1.7-1L15 5h-6l-.4 2.8a8 8 0 0 0-1.7 1L4.5 8l-2 3.5 2 1.5a8 8 0 0 0 .1 1l-2 1.5 2 3.5 2.4-.8a8 8 0 0 0 1.7 1L9 22h6l.4-2.8a8 8 0 0 0 1.7-1l2.4.8 2-3.5-2-1.5Z" stroke="currentColor" stroke-width="1.2" stroke-linecap="round" stroke-linejoin="round" opacity="0.9"/>
</svg>