<svg xmlns="http://www.w3.org/2000/svg" viewBox="0 0 320 96">
  <defs>
    <linearGradient id="g" x1="0" x2="1" y1="0" y2="1">
      <stop offset="0" stop-color="#9CF0FF"/>
      <stop offset="0.55" stop-color="#B7A7FF"/>
      <stop offset="1" stop-color="#FFB3E1"/>
    </linearGradient>
    <filter id="s" x="-20%" y="-20%" width="140%" height="140%">
      <feDropShadow dx="0" dy="6" stdDeviation="8" flood-color="#000" flood-opacity="0.45"/>
    </filter>
  </defs>
  <rect x="0" y="0" width="320" height="96" rx="22" fill="rgba(255,255,255,0.04)" stroke="rgba(255,255,255,0.10)"/>
  <g filter="url(#s)" transform="translate(18,16)">
    <path d="M14 58c8-20 16-34 28-42 17-12 36-12 55 0 9 6 18 16 27 30 8-20 16-34 28-42 17-12 36-12 55 0 9 6 18 16 27 30 7-17 18-36 34-52" fill="none" stroke="url(#g)" stroke-width="6" stroke-linecap="round"/>
    <g transform="translate(206,6)">
      <rect x="0" y="30" width="6" height="28" rx="3" fill="url(#g)"/>
      <rect x="12" y="18" width="6" height="40" rx="3" fill="url(#g)" opacity="0.9"/>
      <rect x="24" y="10" width="6" height="48" rx="3" fill="url(#g)" opacity="0.85"/>
      <rect x="36" y="18" width="6" height="40" rx="3" fill="url(#g)" opacity="0.9"/>
      <rect x="48" y="30" width="6" height="28" rx="3" fill="url(#g)" opacity="0.95"/>
    </g>
  </g>
  <text x="34" y="62" font-family="ui-sans-serif,system-ui,-apple-system,Segoe UI,Roboto" font-size="22" fill="white" opacity="0.95">MixBlueprint</text>
  <text x="176" y="62" font-family="ui-sans-serif,system-ui,-apple-system,Segoe UI,Roboto" font-size="18" fill="white" opacity="0.6">Pro</text>
</svg>
